<?xml version="1.0" encoding="utf-8"?>
<!-- Generator: Adobe Illustrator 22.1.0, SVG Export Plug-In . SVG Version: 6.00 Build 0)  -->
<svg version="1.1" id="Ebene_1" xmlns="http://www.w3.org/2000/svg" xmlns:xlink="http://www.w3.org/1999/xlink" x="0px" y="0px"
	 width="16px" height="16px" viewBox="0 0 16 16" style="enable-background:new 0 0 16 16;" xml:space="preserve">
<style type="text/css">
	.st0{fill:#BD1CE5;}
</style>
<polygon class="st0" points="6.7,4.5 8.5,8 12.4,8.6 9.5,11.4 10.2,15.3 6.7,13.4 3.2,15.3 3.9,11.4 1,8.6 5,8 "/>
<polygon class="st0" points="11.8,1.1 12.6,2.7 14.4,3 13.1,4.2 13.4,5.9 11.8,5.1 10.3,5.9 10.6,4.2 9.3,3 11,2.7 "/>
<polygon class="st0" points="3.6,1.5 4.1,2.5 5.1,2.6 4.4,3.4 4.6,4.4 3.6,3.9 2.7,4.4 2.8,3.4 2.1,2.6 3.1,2.5 "/>
</svg>
